<svg width="256" height="256" viewBox="0 0 256 256" xmlns="http://www.w3.org/2000/svg">
  <defs>
    <linearGradient id="grad" x1="0%" y1="0%" x2="100%" y2="100%">
      <stop offset="0%" stop-color="#c0392b" />
      <stop offset="100%" stop-color="#f7f1e1" />
    </linearGradient>
  </defs>
  <rect width="256" height="256" rx="32" fill="#0f1319" />
  <path d="M128 42c-22 0-40 18-40 40v8h-8c-6 0-10 4-10 10v24c0 6 4 10 10 10h8v24c0 22 18 40 40 40s40-18 40-40v-24h8c6 0 10-4 10-10v-24c0-6-4-10-10-10h-8v-8c0-22-18-40-40-40z" fill="url(#grad)" opacity="0.95" />
  <path d="M128 66c-11 0-20 9-20 20v8h-8c-4.4 0-8 3.6-8 8v24c0 4.4 3.6 8 8 8h8v8c0 11 9 20 20 20s20-9 20-20v-8h8c4.4 0 8-3.6 8-8v-24c0-4.4-3.6-8-8-8h-8v-8c0-11-9-20-20-20z" fill="#0f1319" />
  <path d="M97 112l31-18 31 18-31 18z" fill="#f7f1e1" opacity="0.85" />
  <path d="M85 130l18-10 7 4 7-4 18 10-18 10-7-4-7 4z" fill="#f7f1e1" />
  <text x="50%" y="216" text-anchor="middle" font-family="Inter, sans-serif" font-size="28" fill="#f7f1e1" letter-spacing="0.02em">Liberty</text>
  <text x="50%" y="242" text-anchor="middle" font-family="Inter, sans-serif" font-size="16" fill="#c0392b" letter-spacing="0.2em">CHOPPERS</text>
</svg>
